<?xml version="1.0" encoding="utf-8"?>
<!DOCTYPE svg PUBLIC "-//W3C//DTD SVG 1.0//EN" "http://www.w3.org/TR/2001/REC-SVG-20010904/DTD/svg10.dtd">
<svg version="1.0" xmlns="http://www.w3.org/2000/svg" width="50px" height="50px" viewBox="0 0 614 614" preserveAspectRatio="xMidYMid meet">
 <g fill="#000000">
  <path d="M211.1 401.8 c0 -0.7 0.8 -3.5 1.7 -6.1 l1.7 -4.8 4.3 4.4 4.3 4.4 -4.3 1.2 c-2.4 0.7 -5.1 1.5 -6 1.7 -1.1 0.3 -1.8 0 -1.7 -0.8z"/>
  <path d="M222.2 391.7 l-6.2 -6.3 4 -13.4 c2.2 -7.3 4.1 -13.5 4.3 -13.6 0.2 -0.2 7.5 6.9 16.2 15.6 8.8 8.8 15.7 16 15.4 16 -0.3 0 -6.6 1.8 -13.9 4 -7.3 2.2 -13.4 4 -13.4 4 -0.1 0 -3 -2.8 -6.4 -6.3z"/>
  <path d="M247.2 366.7 l-16.2 -16.2 59.5 -59.5 59.5 -59.5 16.2 16.3 16.3 16.2 -59.5 59.5 -59.5 59.5 -16.3 -16.3z m115.1 -100.9 c-0.9 -1 -2.1 -1.8 -2.7 -1.8 -1.3 0 -96.6 95.1 -96.6 96.4 0 0.5 0.8 1.8 1.7 2.8 1.6 1.8 3.6 0 50.5 -46.9 45.9 -45.9 48.6 -48.8 47.1 -50.5z m-60.3 36.7 l48.5 -48.5 -2.3 -2.2 -2.2 -2.3 -48.7 48.7 c-48.3 48.3 -48.7 48.7 -46.8 50.8 1 1.1 2.1 2 2.4 2 0.3 0 22.4 -21.8 49.1 -48.5z"/>
  <path d="M373.5 240 l-16 -16 5.5 -5.6 c6.6 -6.7 10.3 -8.8 13.8 -7.9 1.5 0.4 7.7 5.6 13.9 11.8 11.9 11.7 14.4 15.7 12.2 19.9 -1.1 2.3 -11.9 13.8 -12.9 13.8 -0.3 0 -7.7 -7.2 -16.5 -16z"/>
 </g>
</svg>