<?xml version="1.0" encoding="utf-8"?>
<!DOCTYPE svg PUBLIC "-//W3C//DTD SVG 1.0//EN" "http://www.w3.org/TR/2001/REC-SVG-20010904/DTD/svg10.dtd">
<svg version="1.0" xmlns="http://www.w3.org/2000/svg" width="50px" height="50px" viewBox="0 0 5000 5000" preserveAspectRatio="xMidYMid meet">
 <g fill="#000000">
  <path d="M1876.80 3975.80 c-16.20 -1.80 -43.40 -10 -57.80 -17.40 -53 -26.60 -91.40 -79 -103.80 -141.40 -2 -9.60 -25.40 -319.80 -59.20 -784 -30.80 -422.40 -66.80 -915.60 -80 -1096.20 -13.20 -180.40 -24 -332.80 -24 -338.40 l0 -10.40 949 0 c889.80 0 949 0.20 949 3.40 0 10.80 -160.20 2198.60 -162 2212.20 -4.20 31.80 -17.40 67 -34.60 92.40 -9 13.20 -32.60 37.20 -46.40 47 -17.60 12.60 -39.20 22.80 -60.80 28.80 l-19.20 5.20 -618 0.20 c-339.80 0.20 -624.40 -0.40 -632.20 -1.40z m130.40 -321 c13.20 -6.60 27.60 -21.60 33.20 -34.20 2.20 -5.20 4.60 -14.80 5 -21.40 1.60 -22.80 -39.20 -1633.80 -41.60 -1642.20 -6 -21.20 -22.60 -41 -41.20 -49.40 -21.40 -9.40 -47.20 -3.20 -66.20 15.80 -13.80 13.80 -19 25.80 -19.80 46.60 -0.40 9.40 8.20 380.20 19.20 824 21.80 882.40 19.40 817.40 32.80 837.20 7.80 11.80 23.20 23.80 35.40 27.80 12.80 4.20 29.80 2.60 43.20 -4.20z m330.80 1 c14.60 -6.80 27.20 -19.80 34.80 -35.80 l6.20 -13 0 -824 0 -824 -4.60 -11.40 c-10 -24.60 -37 -44.60 -60.20 -44.40 -29.40 0 -58.20 26 -64.20 57.80 -1.60 8.80 -2 227.60 -1.60 829 l0.60 817 5.40 11.60 c17.20 36.60 51.60 51.80 83.60 37.20z m372.80 0.20 c13.60 -6.40 25.80 -18.40 33.40 -32.40 l6.80 -12.60 0 -828 0 -828 -5.40 -11.40 c-11 -23.60 -35.40 -40.40 -58.60 -40.40 -22.80 0 -47.80 17.40 -58.80 40.80 l-5.20 11 0 828 0 828 5.40 10.20 c10 18.80 25 32.40 42.40 38 11 3.60 29 2.20 40 -3.20z m328.20 1.80 c13.40 -5 30.20 -19.80 37.60 -33.40 3 -5.40 6.20 -16 7.40 -23.60 1.60 -10.40 37.80 -1452.20 40.60 -1612.80 0.60 -36 -2 -44.80 -17.80 -61.80 -21.40 -23 -46.40 -28.80 -71.40 -16.60 -22.60 11.20 -36.40 31 -39.80 57.40 -1 7.80 -10.60 378 -21.40 823 -21.60 891 -21 820.20 -7.80 840.40 7.60 12 18.60 20.80 33.20 26.80 14.20 5.80 25 6 39.40 0.60z"/>
  <path d="M1494.40 1434.60 c0.80 -99.80 1.20 -106.40 5 -120.80 6.20 -22.20 13.60 -38.80 25.80 -57 25.20 -38.20 66 -65.60 111.40 -75 17.60 -3.60 31.20 -3.80 305.60 -3.80 l287.20 0 1.20 -26.40 c1.40 -30.60 4.60 -44.60 14.80 -64.40 10.20 -19.40 32.80 -42 52.20 -51.80 27.80 -13.80 24 -13.60 209.40 -13 184.60 0.80 170.40 -0.20 199.40 15 17.80 9.40 38.20 29.20 47.20 46.20 12.60 23.40 14.80 32.80 15.80 64.80 l1 29.60 294.40 0.40 294.20 0.60 17.60 5.60 c62 19.40 107 64.60 123.80 124.80 4.20 15 4.40 19.80 5.20 123.20 l0.60 107.40 -1006.20 0 -1006.40 0 0.80 -105.40z"/>
 </g>
 <g fill="#ffffff">
  <path d="M0 2500 l0 -2500 2500 0 2500 0 0 2500 0 2500 -2500 0 -2500 0 0 -2500z m3140.20 1465.80 c21.60 -6 43.20 -16.20 60.80 -28.80 13.80 -9.80 37.40 -33.80 46.40 -47 17.20 -25.40 30.40 -60.60 34.60 -92.40 1.20 -9.20 37.60 -504 81 -1099.60 43.40 -595.60 79.40 -1087.80 80 -1093.40 l1 -10.60 -943 0 -943 0 0 4.40 c0 2.40 10.80 152 24 332.40 13.20 180.60 49.20 673.80 80 1096.20 33.80 464.20 57.20 774.40 59.20 784 12.40 62.40 50.80 114.80 103.80 141.40 14.40 7.40 41.60 15.60 57.80 17.40 7.80 1 289.60 1.60 626.20 1.40 l612 -0.20 19.20 -5.20z m359.40 -2533.20 c-0.80 -97.20 -1 -102.20 -5.20 -117.20 -16.80 -60 -61.80 -105.40 -123.80 -124.80 l-17.60 -5.60 -294.20 -0.60 -294.40 -0.40 -1 -29.60 c-1 -32 -3.20 -41.40 -15.80 -64.80 -9 -17 -29.40 -36.80 -47.20 -46.20 -28.80 -15.20 -15.40 -14.20 -193.40 -15 -178.60 -0.60 -175.60 -0.80 -203.40 13 -19.40 9.80 -42 32.40 -52.20 51.80 -10.20 19.80 -13.40 33.80 -14.80 64.40 l-1.20 26.40 -287.20 0 c-274.40 0 -288 0.20 -305.60 3.80 -67.20 13.80 -118 63 -137.20 132 -3.80 14.20 -4.20 21.20 -5 114.80 l-0.80 99.40 1000.40 0 1000.20 0 -0.60 -101.40z"/>
  <path d="M1958 3665 c-12.20 -4 -27.60 -16 -35.40 -27.80 -13.40 -19.80 -11 45.20 -32.80 -837.20 -11 -443.80 -19.60 -817.40 -19.20 -830 0.60 -19.40 1.40 -24.60 5.40 -33 6.60 -13.40 21.60 -28 35.60 -34.60 15.20 -7.20 42 -7.60 57 -0.80 18.80 8.40 35.20 28.20 41.20 49.40 2.40 8.60 43 1614.60 41.60 1648 -0.80 21.60 -5 32.60 -18.20 46.60 -13.80 14.80 -28 21 -49 21.80 -11.20 0.40 -20.40 -0.40 -26.20 -2.40z"/>
  <path d="M2287.60 3663.40 c-18.40 -7.80 -30 -19.20 -39.20 -38.80 l-5.40 -11.60 -0.60 -823 c-0.40 -606 0 -826.20 1.60 -835 4.60 -23.40 19.40 -42.20 41.60 -52.60 9.60 -4.60 14.20 -5.40 28.40 -5.40 15.20 0 18.60 0.80 30.40 6.60 16.20 8 29.60 22 36 38 l4.60 11.40 0 830 0 830 -6.20 13 c-7.60 16 -20.20 29 -34.80 35.80 -16 7.60 -40.60 8.20 -56.40 1.60z"/>
  <path d="M2664.80 3665.20 c-17.40 -5.60 -32.40 -19.20 -42.40 -38 l-5.40 -10.20 0 -834 0 -834 5.20 -11 c6.60 -14 20.60 -28.20 35.40 -35.40 10 -4.80 13.80 -5.60 29.40 -5.60 15.80 0 19.40 0.80 29.80 5.80 15.20 7.40 28 20.20 34.80 34.80 l5.40 11.40 0 834 0 834 -6.80 12.60 c-7.80 14.20 -20 26 -33.80 32.80 -11.40 5.40 -39 7 -51.60 2.80z"/>
  <path d="M2993.60 3663.20 c-22 -9 -36.60 -25.40 -42.20 -47.40 -2.60 -9.80 -1 -96 16.80 -825.80 10.80 -448.20 20.60 -821.20 21.40 -829 3.40 -26.40 17.20 -46.20 40 -57.40 11.80 -6 15.20 -6.60 30.40 -6.60 22.60 0 37.40 6.60 52.80 23.20 16.40 17.60 18.40 25 17.80 67.80 -1.60 120.40 -38.80 1607.60 -40.60 1618.80 -2.60 17.40 -10 31 -23.40 43.20 -19.80 18 -48.60 23.20 -73 13.20z"/>
 </g>
</svg>